<mxfile host="65bd71144e">
    <diagram name="Page-1" id="bIOTRL0P7pFuuBGpy6h3">
        <mxGraphModel dx="2244" dy="1730" grid="1" gridSize="10" guides="1" tooltips="1" connect="1" arrows="1" fold="1" page="0" pageScale="1" pageWidth="850" pageHeight="1100" math="0" shadow="0">
            <root>
                <mxCell id="0"/>
                <mxCell id="1" parent="0"/>
                <mxCell id="qT8QFI2zWoo-CX15Q3ks-1" value="&lt;div&gt;Frontend&lt;/div&gt;" style="swimlane;whiteSpace=wrap;html=1;strokeWidth=3;strokeColor=light-dark(#000000,#9999FF);" parent="1" vertex="1">
                    <mxGeometry x="600" width="240" height="2800" as="geometry"/>
                </mxCell>
                <mxCell id="qT8QFI2zWoo-CX15Q3ks-9" style="edgeStyle=orthogonalEdgeStyle;rounded=0;orthogonalLoop=1;jettySize=auto;html=1;exitX=0.5;exitY=1;exitDx=0;exitDy=0;" parent="qT8QFI2zWoo-CX15Q3ks-1" edge="1">
                    <mxGeometry relative="1" as="geometry">
                        <mxPoint x="100" y="100" as="targetPoint"/>
                    </mxGeometry>
                </mxCell>
                <mxCell id="qT8QFI2zWoo-CX15Q3ks-23" value="Show landing page" style="rounded=1;whiteSpace=wrap;html=1;" parent="qT8QFI2zWoo-CX15Q3ks-1" vertex="1">
                    <mxGeometry x="60" y="200" width="120" height="40" as="geometry"/>
                </mxCell>
                <mxCell id="qT8QFI2zWoo-CX15Q3ks-25" value="Show login portal" style="rounded=1;whiteSpace=wrap;html=1;" parent="qT8QFI2zWoo-CX15Q3ks-1" vertex="1">
                    <mxGeometry x="60" y="320" width="120" height="40" as="geometry"/>
                </mxCell>
                <mxCell id="qT8QFI2zWoo-CX15Q3ks-41" value="Show authenticated landing page" style="rounded=1;whiteSpace=wrap;html=1;" parent="qT8QFI2zWoo-CX15Q3ks-1" vertex="1">
                    <mxGeometry x="60" y="920" width="120" height="40" as="geometry"/>
                </mxCell>
                <mxCell id="10" value="Show registration portal" style="rounded=1;whiteSpace=wrap;html=1;" parent="qT8QFI2zWoo-CX15Q3ks-1" vertex="1">
                    <mxGeometry x="60" y="640" width="120" height="40" as="geometry"/>
                </mxCell>
                <mxCell id="39" style="edgeStyle=none;html=1;entryX=0.5;entryY=0;entryDx=0;entryDy=0;" parent="qT8QFI2zWoo-CX15Q3ks-1" source="21" target="37" edge="1">
                    <mxGeometry relative="1" as="geometry"/>
                </mxCell>
                <mxCell id="48" style="edgeStyle=none;html=1;exitX=1;exitY=0.5;exitDx=0;exitDy=0;" parent="qT8QFI2zWoo-CX15Q3ks-1" source="21" edge="1">
                    <mxGeometry relative="1" as="geometry">
                        <mxPoint x="360" y="1360" as="targetPoint"/>
                        <Array as="points">
                            <mxPoint x="360" y="1220"/>
                        </Array>
                    </mxGeometry>
                </mxCell>
                <mxCell id="21" value="Show &quot;My Courses&quot; view" style="rounded=1;whiteSpace=wrap;html=1;" parent="qT8QFI2zWoo-CX15Q3ks-1" vertex="1">
                    <mxGeometry x="60" y="1200" width="120" height="40" as="geometry"/>
                </mxCell>
                <mxCell id="37" value="Add &quot;Recommended Courses&quot;" style="rounded=1;whiteSpace=wrap;html=1;" parent="qT8QFI2zWoo-CX15Q3ks-1" vertex="1">
                    <mxGeometry x="60" y="1280" width="120" height="40" as="geometry"/>
                </mxCell>
                <mxCell id="45" value="Show course details" style="rounded=1;whiteSpace=wrap;html=1;" parent="qT8QFI2zWoo-CX15Q3ks-1" vertex="1">
                    <mxGeometry x="60" y="1440" width="120" height="40" as="geometry"/>
                </mxCell>
                <mxCell id="63" value="Show invoice/receipt information" style="rounded=1;whiteSpace=wrap;html=1;" vertex="1" parent="qT8QFI2zWoo-CX15Q3ks-1">
                    <mxGeometry x="60" y="1640" width="120" height="40" as="geometry"/>
                </mxCell>
                <mxCell id="74" value="Start billing cycle" style="rounded=1;whiteSpace=wrap;html=1;" vertex="1" parent="qT8QFI2zWoo-CX15Q3ks-1">
                    <mxGeometry x="60" y="1840" width="120" height="40" as="geometry"/>
                </mxCell>
                <mxCell id="qT8QFI2zWoo-CX15Q3ks-2" value="Backend" style="swimlane;whiteSpace=wrap;html=1;strokeWidth=3;swimlaneFillColor=none;strokeColor=light-dark(#000000,#9999FF);" parent="1" vertex="1">
                    <mxGeometry x="360" width="240" height="2800" as="geometry"/>
                </mxCell>
                <mxCell id="qT8QFI2zWoo-CX15Q3ks-33" value="&lt;div&gt;Does user exist in database?&lt;/div&gt;" style="rhombus;whiteSpace=wrap;html=1;" parent="qT8QFI2zWoo-CX15Q3ks-2" vertex="1">
                    <mxGeometry x="60" y="600" width="120" height="120" as="geometry"/>
                </mxCell>
                <mxCell id="qT8QFI2zWoo-CX15Q3ks-37" value="Are credentials correct?" style="rhombus;whiteSpace=wrap;html=1;" parent="qT8QFI2zWoo-CX15Q3ks-2" vertex="1">
                    <mxGeometry x="60" y="800" width="120" height="120" as="geometry"/>
                </mxCell>
                <mxCell id="qT8QFI2zWoo-CX15Q3ks-35" style="edgeStyle=orthogonalEdgeStyle;rounded=0;orthogonalLoop=1;jettySize=auto;html=1;exitX=0.5;exitY=1;exitDx=0;exitDy=0;entryX=0.5;entryY=0;entryDx=0;entryDy=0;" parent="qT8QFI2zWoo-CX15Q3ks-2" source="qT8QFI2zWoo-CX15Q3ks-33" target="qT8QFI2zWoo-CX15Q3ks-37" edge="1">
                    <mxGeometry relative="1" as="geometry">
                        <mxPoint x="340.42857142857156" y="799.9999999999998" as="targetPoint"/>
                    </mxGeometry>
                </mxCell>
                <mxCell id="qT8QFI2zWoo-CX15Q3ks-38" value="Yes" style="edgeLabel;html=1;align=center;verticalAlign=middle;resizable=0;points=[];" parent="qT8QFI2zWoo-CX15Q3ks-35" vertex="1" connectable="0">
                    <mxGeometry x="-0.3674" y="3" relative="1" as="geometry">
                        <mxPoint x="7" y="-16" as="offset"/>
                    </mxGeometry>
                </mxCell>
                <mxCell id="2" value="Parse course data" style="rounded=1;whiteSpace=wrap;html=1;" parent="qT8QFI2zWoo-CX15Q3ks-2" vertex="1">
                    <mxGeometry x="60" y="200" width="120" height="40" as="geometry"/>
                </mxCell>
                <mxCell id="qT8QFI2zWoo-CX15Q3ks-28" value="Fetch user persistence" style="rounded=1;whiteSpace=wrap;html=1;" parent="qT8QFI2zWoo-CX15Q3ks-2" vertex="1">
                    <mxGeometry x="70" y="480" width="100" height="40" as="geometry"/>
                </mxCell>
                <mxCell id="16" value="Fetch courses for user" style="rounded=1;whiteSpace=wrap;html=1;" parent="qT8QFI2zWoo-CX15Q3ks-2" vertex="1">
                    <mxGeometry x="60" y="1000" width="120" height="40" as="geometry"/>
                </mxCell>
                <mxCell id="33" style="edgeStyle=none;html=1;exitX=0.5;exitY=1;exitDx=0;exitDy=0;entryX=0;entryY=0.5;entryDx=0;entryDy=0;" parent="qT8QFI2zWoo-CX15Q3ks-2" source="20" target="27" edge="1">
                    <mxGeometry relative="1" as="geometry"/>
                </mxCell>
                <mxCell id="20" value="Parse courses" style="rounded=1;whiteSpace=wrap;html=1;" parent="qT8QFI2zWoo-CX15Q3ks-2" vertex="1">
                    <mxGeometry x="60" y="1080" width="120" height="40" as="geometry"/>
                </mxCell>
                <mxCell id="24" value="Get course recommendations" style="rounded=1;whiteSpace=wrap;html=1;" parent="qT8QFI2zWoo-CX15Q3ks-2" vertex="1">
                    <mxGeometry x="60" y="1280" width="120" height="40" as="geometry"/>
                </mxCell>
                <mxCell id="27" value="" style="shape=rect;html=1;fillColor=strokeColor;verticalLabelPosition=bottom;verticalAlignment=top;rotation=90;" parent="qT8QFI2zWoo-CX15Q3ks-2" vertex="1">
                    <mxGeometry x="118" y="1102.5" width="4" height="165" as="geometry"/>
                </mxCell>
                <mxCell id="41" value="Fetch course details" style="rounded=1;whiteSpace=wrap;html=1;" parent="qT8QFI2zWoo-CX15Q3ks-2" vertex="1">
                    <mxGeometry x="60" y="1360" width="120" height="40" as="geometry"/>
                </mxCell>
                <mxCell id="56" value="Fetch offers and course invoice details" style="rounded=1;whiteSpace=wrap;html=1;" vertex="1" parent="qT8QFI2zWoo-CX15Q3ks-2">
                    <mxGeometry x="60" y="1560" width="120" height="40" as="geometry"/>
                </mxCell>
                <mxCell id="61" value="Check if LLM discount is applied" style="rounded=1;whiteSpace=wrap;html=1;" vertex="1" parent="qT8QFI2zWoo-CX15Q3ks-2">
                    <mxGeometry x="60" y="1640" width="120" height="40" as="geometry"/>
                </mxCell>
                <mxCell id="qT8QFI2zWoo-CX15Q3ks-3" value="LLM" style="swimlane;whiteSpace=wrap;html=1;fontStyle=4;strokeWidth=3;strokeColor=light-dark(#000000,#9999FF);" parent="1" vertex="1">
                    <mxGeometry x="120" width="240" height="2800" as="geometry"/>
                </mxCell>
                <mxCell id="25" value="Gather recommended courses" style="rounded=1;whiteSpace=wrap;html=1;" parent="qT8QFI2zWoo-CX15Q3ks-3" vertex="1">
                    <mxGeometry x="60" y="1200" width="120" height="40" as="geometry"/>
                </mxCell>
                <mxCell id="qT8QFI2zWoo-CX15Q3ks-4" value="ORDS" style="swimlane;whiteSpace=wrap;html=1;strokeWidth=3;strokeColor=light-dark(#000000,#9999FF);" parent="1" vertex="1">
                    <mxGeometry x="-120" width="240" height="2800" as="geometry"/>
                </mxCell>
                <mxCell id="qT8QFI2zWoo-CX15Q3ks-21" value="Fetch course overview" style="rounded=1;whiteSpace=wrap;html=1;" parent="qT8QFI2zWoo-CX15Q3ks-4" vertex="1">
                    <mxGeometry x="60" y="120" width="120" height="40" as="geometry"/>
                </mxCell>
                <mxCell id="qT8QFI2zWoo-CX15Q3ks-30" value="Get user data" style="rounded=1;whiteSpace=wrap;html=1;" parent="qT8QFI2zWoo-CX15Q3ks-4" vertex="1">
                    <mxGeometry x="60" y="480" width="120" height="40" as="geometry"/>
                </mxCell>
                <mxCell id="18" value="Get courses for user" style="rounded=1;whiteSpace=wrap;html=1;" parent="qT8QFI2zWoo-CX15Q3ks-4" vertex="1">
                    <mxGeometry x="60" y="1000" width="120" height="40" as="geometry"/>
                </mxCell>
                <mxCell id="43" value="Get course details" style="rounded=1;whiteSpace=wrap;html=1;" parent="qT8QFI2zWoo-CX15Q3ks-4" vertex="1">
                    <mxGeometry x="60" y="1360" width="120" height="40" as="geometry"/>
                </mxCell>
                <mxCell id="59" value="Get course invoice details" style="rounded=1;whiteSpace=wrap;html=1;" vertex="1" parent="qT8QFI2zWoo-CX15Q3ks-4">
                    <mxGeometry x="60" y="1560" width="120" height="40" as="geometry"/>
                </mxCell>
                <mxCell id="qT8QFI2zWoo-CX15Q3ks-10" value="User" style="swimlane;whiteSpace=wrap;html=1;strokeWidth=3;strokeColor=light-dark(#000000,#9999FF);" parent="1" vertex="1">
                    <mxGeometry x="840" width="240" height="2800" as="geometry"/>
                </mxCell>
                <mxCell id="qT8QFI2zWoo-CX15Q3ks-11" style="edgeStyle=orthogonalEdgeStyle;rounded=0;orthogonalLoop=1;jettySize=auto;html=1;exitX=0.5;exitY=1;exitDx=0;exitDy=0;" parent="qT8QFI2zWoo-CX15Q3ks-10" source="qT8QFI2zWoo-CX15Q3ks-12" target="qT8QFI2zWoo-CX15Q3ks-13" edge="1">
                    <mxGeometry relative="1" as="geometry"/>
                </mxCell>
                <mxCell id="qT8QFI2zWoo-CX15Q3ks-12" value="" style="ellipse;html=1;shape=startState;strokeColor=none;fillColor=light-dark(#F5F5F5,#FFFFFF);fontColor=#333333;" parent="qT8QFI2zWoo-CX15Q3ks-10" vertex="1">
                    <mxGeometry x="105" y="40" width="30" height="30" as="geometry"/>
                </mxCell>
                <mxCell id="qT8QFI2zWoo-CX15Q3ks-13" value="User opens pxsng.com" style="rounded=1;whiteSpace=wrap;html=1;" parent="qT8QFI2zWoo-CX15Q3ks-10" vertex="1">
                    <mxGeometry x="60" y="120" width="120" height="40" as="geometry"/>
                </mxCell>
                <mxCell id="qT8QFI2zWoo-CX15Q3ks-16" value="Enter login credentials" style="rounded=1;whiteSpace=wrap;html=1;" parent="qT8QFI2zWoo-CX15Q3ks-10" vertex="1">
                    <mxGeometry x="60" y="400" width="120" height="40" as="geometry"/>
                </mxCell>
                <mxCell id="qT8QFI2zWoo-CX15Q3ks-20" value="Open login panel" style="rounded=1;whiteSpace=wrap;html=1;" parent="qT8QFI2zWoo-CX15Q3ks-10" vertex="1">
                    <mxGeometry x="60" y="320" width="120" height="40" as="geometry"/>
                </mxCell>
                <mxCell id="13" value="Open courses view" style="rounded=1;whiteSpace=wrap;html=1;" parent="qT8QFI2zWoo-CX15Q3ks-10" vertex="1">
                    <mxGeometry x="60" y="1000" width="120" height="40" as="geometry"/>
                </mxCell>
                <mxCell id="40" value="Open course details" style="rounded=1;whiteSpace=wrap;html=1;" parent="qT8QFI2zWoo-CX15Q3ks-10" vertex="1">
                    <mxGeometry x="60" y="1360" width="120" height="40" as="geometry"/>
                </mxCell>
                <mxCell id="53" style="edgeStyle=none;html=1;exitX=0;exitY=0.25;exitDx=0;exitDy=0;entryX=0.5;entryY=0;entryDx=0;entryDy=0;" parent="qT8QFI2zWoo-CX15Q3ks-10" source="49" target="52" edge="1">
                    <mxGeometry relative="1" as="geometry"/>
                </mxCell>
                <mxCell id="54" style="edgeStyle=none;html=1;exitX=1;exitY=0.75;exitDx=0;exitDy=0;entryX=0.5;entryY=0;entryDx=0;entryDy=0;" parent="qT8QFI2zWoo-CX15Q3ks-10" source="49" target="51" edge="1">
                    <mxGeometry relative="1" as="geometry"/>
                </mxCell>
                <mxCell id="49" value="" style="shape=rect;html=1;fillColor=strokeColor;verticalLabelPosition=bottom;verticalAlignment=top;rotation=90;" parent="qT8QFI2zWoo-CX15Q3ks-10" vertex="1">
                    <mxGeometry x="118" y="1420" width="4" height="165" as="geometry"/>
                </mxCell>
                <mxCell id="51" value="Buy course" style="rounded=1;whiteSpace=wrap;html=1;" parent="qT8QFI2zWoo-CX15Q3ks-10" vertex="1">
                    <mxGeometry x="38" y="1561" width="80" height="40" as="geometry"/>
                </mxCell>
                <mxCell id="52" value="Start course" style="rounded=1;whiteSpace=wrap;html=1;" parent="qT8QFI2zWoo-CX15Q3ks-10" vertex="1">
                    <mxGeometry x="122" y="1910" width="80" height="40" as="geometry"/>
                </mxCell>
                <mxCell id="71" style="edgeStyle=none;html=1;exitX=1;exitY=0.75;exitDx=0;exitDy=0;entryX=0.5;entryY=0;entryDx=0;entryDy=0;" edge="1" parent="qT8QFI2zWoo-CX15Q3ks-10" source="66" target="70">
                    <mxGeometry relative="1" as="geometry">
                        <Array as="points">
                            <mxPoint x="45" y="1750"/>
                        </Array>
                    </mxGeometry>
                </mxCell>
                <mxCell id="73" style="edgeStyle=none;html=1;exitX=1;exitY=0.25;exitDx=0;exitDy=0;entryX=0.5;entryY=0;entryDx=0;entryDy=0;" edge="1" parent="qT8QFI2zWoo-CX15Q3ks-10" source="66" target="69">
                    <mxGeometry relative="1" as="geometry">
                        <Array as="points">
                            <mxPoint x="110" y="1750"/>
                        </Array>
                    </mxGeometry>
                </mxCell>
                <mxCell id="66" value="" style="shape=rect;html=1;fillColor=strokeColor;verticalLabelPosition=bottom;verticalAlignment=top;rotation=90;" vertex="1" parent="qT8QFI2zWoo-CX15Q3ks-10">
                    <mxGeometry x="80" y="1700" width="4" height="75" as="geometry"/>
                </mxCell>
                <mxCell id="69" value="Confirm" style="rounded=1;whiteSpace=wrap;html=1;" vertex="1" parent="qT8QFI2zWoo-CX15Q3ks-10">
                    <mxGeometry x="85" y="1780" width="50" height="40" as="geometry"/>
                </mxCell>
                <mxCell id="70" value="Cancel" style="rounded=1;whiteSpace=wrap;html=1;" vertex="1" parent="qT8QFI2zWoo-CX15Q3ks-10">
                    <mxGeometry x="20" y="1780" width="50" height="40" as="geometry"/>
                </mxCell>
                <mxCell id="qT8QFI2zWoo-CX15Q3ks-26" style="edgeStyle=orthogonalEdgeStyle;rounded=0;orthogonalLoop=1;jettySize=auto;html=1;exitX=0;exitY=0.5;exitDx=0;exitDy=0;entryX=1;entryY=0.5;entryDx=0;entryDy=0;" parent="1" source="qT8QFI2zWoo-CX15Q3ks-20" target="qT8QFI2zWoo-CX15Q3ks-25" edge="1">
                    <mxGeometry relative="1" as="geometry"/>
                </mxCell>
                <mxCell id="qT8QFI2zWoo-CX15Q3ks-27" style="edgeStyle=orthogonalEdgeStyle;rounded=0;orthogonalLoop=1;jettySize=auto;html=1;exitX=0.5;exitY=1;exitDx=0;exitDy=0;entryX=0;entryY=0.5;entryDx=0;entryDy=0;" parent="1" source="qT8QFI2zWoo-CX15Q3ks-25" target="qT8QFI2zWoo-CX15Q3ks-16" edge="1">
                    <mxGeometry relative="1" as="geometry"/>
                </mxCell>
                <mxCell id="qT8QFI2zWoo-CX15Q3ks-29" style="edgeStyle=orthogonalEdgeStyle;rounded=0;orthogonalLoop=1;jettySize=auto;html=1;exitX=0.5;exitY=1;exitDx=0;exitDy=0;entryX=1;entryY=0.5;entryDx=0;entryDy=0;" parent="1" source="qT8QFI2zWoo-CX15Q3ks-16" target="qT8QFI2zWoo-CX15Q3ks-28" edge="1">
                    <mxGeometry relative="1" as="geometry"/>
                </mxCell>
                <mxCell id="qT8QFI2zWoo-CX15Q3ks-34" style="edgeStyle=orthogonalEdgeStyle;rounded=0;orthogonalLoop=1;jettySize=auto;html=1;exitX=0.5;exitY=1;exitDx=0;exitDy=0;" parent="1" source="qT8QFI2zWoo-CX15Q3ks-30" target="qT8QFI2zWoo-CX15Q3ks-33" edge="1">
                    <mxGeometry relative="1" as="geometry"/>
                </mxCell>
                <mxCell id="qT8QFI2zWoo-CX15Q3ks-42" style="edgeStyle=orthogonalEdgeStyle;rounded=0;orthogonalLoop=1;jettySize=auto;html=1;exitX=0.5;exitY=1;exitDx=0;exitDy=0;entryX=0;entryY=0.5;entryDx=0;entryDy=0;" parent="1" source="qT8QFI2zWoo-CX15Q3ks-37" target="qT8QFI2zWoo-CX15Q3ks-41" edge="1">
                    <mxGeometry relative="1" as="geometry"/>
                </mxCell>
                <mxCell id="5" value="Yes" style="edgeLabel;html=1;align=center;verticalAlign=middle;resizable=0;points=[];" parent="qT8QFI2zWoo-CX15Q3ks-42" vertex="1" connectable="0">
                    <mxGeometry x="-0.7119" y="1" relative="1" as="geometry">
                        <mxPoint x="11" y="-9" as="offset"/>
                    </mxGeometry>
                </mxCell>
                <mxCell id="qT8QFI2zWoo-CX15Q3ks-45" style="edgeStyle=orthogonalEdgeStyle;rounded=0;orthogonalLoop=1;jettySize=auto;html=1;exitX=0;exitY=0.5;exitDx=0;exitDy=0;entryX=1;entryY=0.5;entryDx=0;entryDy=0;" parent="1" source="qT8QFI2zWoo-CX15Q3ks-43" target="qT8QFI2zWoo-CX15Q3ks-21" edge="1">
                    <mxGeometry relative="1" as="geometry"/>
                </mxCell>
                <mxCell id="qT8QFI2zWoo-CX15Q3ks-43" value="Fetch available course" style="rounded=1;whiteSpace=wrap;html=1;" parent="1" vertex="1">
                    <mxGeometry x="420" y="120" width="120" height="40" as="geometry"/>
                </mxCell>
                <mxCell id="3" style="edgeStyle=none;html=1;entryX=0;entryY=0.5;entryDx=0;entryDy=0;" parent="1" source="2" target="qT8QFI2zWoo-CX15Q3ks-23" edge="1">
                    <mxGeometry relative="1" as="geometry"/>
                </mxCell>
                <mxCell id="4" style="edgeStyle=none;html=1;exitX=0.5;exitY=1;exitDx=0;exitDy=0;entryX=0;entryY=0.5;entryDx=0;entryDy=0;" parent="1" source="qT8QFI2zWoo-CX15Q3ks-21" target="2" edge="1">
                    <mxGeometry relative="1" as="geometry">
                        <Array as="points">
                            <mxPoint y="220"/>
                        </Array>
                    </mxGeometry>
                </mxCell>
                <mxCell id="6" style="edgeStyle=none;html=1;exitX=0;exitY=0.5;exitDx=0;exitDy=0;entryX=1;entryY=0.5;entryDx=0;entryDy=0;" parent="1" source="qT8QFI2zWoo-CX15Q3ks-28" target="qT8QFI2zWoo-CX15Q3ks-30" edge="1">
                    <mxGeometry relative="1" as="geometry"/>
                </mxCell>
                <mxCell id="7" style="edgeStyle=none;html=1;exitX=1;exitY=0.5;exitDx=0;exitDy=0;entryX=0;entryY=0.5;entryDx=0;entryDy=0;" parent="1" source="qT8QFI2zWoo-CX15Q3ks-37" target="qT8QFI2zWoo-CX15Q3ks-25" edge="1">
                    <mxGeometry relative="1" as="geometry">
                        <Array as="points">
                            <mxPoint x="560" y="860"/>
                            <mxPoint x="560" y="340"/>
                        </Array>
                    </mxGeometry>
                </mxCell>
                <mxCell id="8" value="No" style="edgeLabel;html=1;align=center;verticalAlign=middle;resizable=0;points=[];" parent="7" vertex="1" connectable="0">
                    <mxGeometry x="-0.952" relative="1" as="geometry">
                        <mxPoint y="10" as="offset"/>
                    </mxGeometry>
                </mxCell>
                <mxCell id="9" style="edgeStyle=none;html=1;exitX=0;exitY=0.5;exitDx=0;exitDy=0;entryX=1;entryY=0.5;entryDx=0;entryDy=0;" parent="1" source="qT8QFI2zWoo-CX15Q3ks-13" target="qT8QFI2zWoo-CX15Q3ks-43" edge="1">
                    <mxGeometry relative="1" as="geometry"/>
                </mxCell>
                <mxCell id="11" style="edgeStyle=none;html=1;exitX=1;exitY=0.5;exitDx=0;exitDy=0;entryX=0;entryY=0.5;entryDx=0;entryDy=0;" parent="1" source="qT8QFI2zWoo-CX15Q3ks-33" target="10" edge="1">
                    <mxGeometry relative="1" as="geometry"/>
                </mxCell>
                <mxCell id="12" style="edgeStyle=none;html=1;exitX=1;exitY=0.5;exitDx=0;exitDy=0;entryX=0.5;entryY=0;entryDx=0;entryDy=0;" parent="1" source="qT8QFI2zWoo-CX15Q3ks-23" target="qT8QFI2zWoo-CX15Q3ks-20" edge="1">
                    <mxGeometry relative="1" as="geometry">
                        <Array as="points">
                            <mxPoint x="960" y="220"/>
                        </Array>
                    </mxGeometry>
                </mxCell>
                <mxCell id="15" style="edgeStyle=none;html=1;exitX=1;exitY=0.5;exitDx=0;exitDy=0;entryX=0.5;entryY=0;entryDx=0;entryDy=0;" parent="1" source="qT8QFI2zWoo-CX15Q3ks-41" target="13" edge="1">
                    <mxGeometry relative="1" as="geometry">
                        <Array as="points">
                            <mxPoint x="960" y="940"/>
                        </Array>
                    </mxGeometry>
                </mxCell>
                <mxCell id="17" style="edgeStyle=none;html=1;exitX=0;exitY=0.5;exitDx=0;exitDy=0;" parent="1" source="13" target="16" edge="1">
                    <mxGeometry relative="1" as="geometry"/>
                </mxCell>
                <mxCell id="19" style="edgeStyle=none;html=1;exitX=0;exitY=0.5;exitDx=0;exitDy=0;" parent="1" source="16" target="18" edge="1">
                    <mxGeometry relative="1" as="geometry"/>
                </mxCell>
                <mxCell id="23" style="edgeStyle=none;html=1;exitX=0.5;exitY=1;exitDx=0;exitDy=0;entryX=0;entryY=0.5;entryDx=0;entryDy=0;" parent="1" source="18" target="20" edge="1">
                    <mxGeometry relative="1" as="geometry">
                        <Array as="points">
                            <mxPoint y="1100"/>
                        </Array>
                    </mxGeometry>
                </mxCell>
                <mxCell id="34" style="edgeStyle=none;html=1;exitX=1;exitY=0.25;exitDx=0;exitDy=0;entryX=0;entryY=0.5;entryDx=0;entryDy=0;" parent="1" source="27" target="21" edge="1">
                    <mxGeometry relative="1" as="geometry">
                        <Array as="points">
                            <mxPoint x="520" y="1220"/>
                        </Array>
                    </mxGeometry>
                </mxCell>
                <mxCell id="35" style="edgeStyle=none;html=1;exitX=1;exitY=0.75;exitDx=0;exitDy=0;entryX=1;entryY=0.5;entryDx=0;entryDy=0;" parent="1" source="27" target="25" edge="1">
                    <mxGeometry relative="1" as="geometry">
                        <Array as="points">
                            <mxPoint x="439" y="1220"/>
                        </Array>
                    </mxGeometry>
                </mxCell>
                <mxCell id="36" style="edgeStyle=none;html=1;entryX=0;entryY=0.5;entryDx=0;entryDy=0;" parent="1" source="25" target="24" edge="1">
                    <mxGeometry relative="1" as="geometry">
                        <Array as="points">
                            <mxPoint x="240" y="1300"/>
                        </Array>
                    </mxGeometry>
                </mxCell>
                <mxCell id="38" style="edgeStyle=none;html=1;exitX=1;exitY=0.5;exitDx=0;exitDy=0;entryX=0;entryY=0.5;entryDx=0;entryDy=0;" parent="1" source="24" target="37" edge="1">
                    <mxGeometry relative="1" as="geometry"/>
                </mxCell>
                <mxCell id="42" style="edgeStyle=none;html=1;exitX=0;exitY=0.5;exitDx=0;exitDy=0;entryX=1;entryY=0.5;entryDx=0;entryDy=0;" parent="1" source="40" target="41" edge="1">
                    <mxGeometry relative="1" as="geometry"/>
                </mxCell>
                <mxCell id="44" style="edgeStyle=none;html=1;exitX=0;exitY=0.5;exitDx=0;exitDy=0;entryX=1;entryY=0.5;entryDx=0;entryDy=0;" parent="1" source="41" target="43" edge="1">
                    <mxGeometry relative="1" as="geometry"/>
                </mxCell>
                <mxCell id="46" style="edgeStyle=none;html=1;exitX=0.5;exitY=1;exitDx=0;exitDy=0;entryX=0;entryY=0.5;entryDx=0;entryDy=0;" parent="1" source="43" target="45" edge="1">
                    <mxGeometry relative="1" as="geometry">
                        <Array as="points">
                            <mxPoint y="1460"/>
                        </Array>
                    </mxGeometry>
                </mxCell>
                <mxCell id="47" style="edgeStyle=none;html=1;exitX=1;exitY=0.5;exitDx=0;exitDy=0;entryX=0.5;entryY=0;entryDx=0;entryDy=0;" parent="1" source="37" target="40" edge="1">
                    <mxGeometry relative="1" as="geometry">
                        <Array as="points">
                            <mxPoint x="960" y="1300"/>
                        </Array>
                    </mxGeometry>
                </mxCell>
                <mxCell id="50" style="edgeStyle=none;html=1;exitX=1;exitY=0.5;exitDx=0;exitDy=0;entryX=1;entryY=0.5;entryDx=0;entryDy=0;" parent="1" source="45" target="49" edge="1">
                    <mxGeometry relative="1" as="geometry">
                        <Array as="points">
                            <mxPoint x="960" y="1460"/>
                        </Array>
                    </mxGeometry>
                </mxCell>
                <mxCell id="60" style="edgeStyle=none;html=1;exitX=0;exitY=0.5;exitDx=0;exitDy=0;" edge="1" parent="1" source="56" target="59">
                    <mxGeometry relative="1" as="geometry"/>
                </mxCell>
                <mxCell id="62" style="edgeStyle=none;html=1;exitX=0.5;exitY=1;exitDx=0;exitDy=0;entryX=0;entryY=0.5;entryDx=0;entryDy=0;" edge="1" parent="1" source="59" target="61">
                    <mxGeometry relative="1" as="geometry">
                        <Array as="points">
                            <mxPoint y="1660"/>
                        </Array>
                    </mxGeometry>
                </mxCell>
                <mxCell id="64" style="edgeStyle=none;html=1;exitX=1;exitY=0.5;exitDx=0;exitDy=0;" edge="1" parent="1" source="61" target="63">
                    <mxGeometry relative="1" as="geometry"/>
                </mxCell>
                <mxCell id="65" style="edgeStyle=none;html=1;exitX=0;exitY=0.5;exitDx=0;exitDy=0;" edge="1" parent="1" source="51" target="56">
                    <mxGeometry relative="1" as="geometry"/>
                </mxCell>
                <mxCell id="67" style="edgeStyle=none;html=1;exitX=1;exitY=0.5;exitDx=0;exitDy=0;entryX=0;entryY=0.5;entryDx=0;entryDy=0;" edge="1" parent="1" source="63" target="66">
                    <mxGeometry relative="1" as="geometry">
                        <Array as="points">
                            <mxPoint x="920" y="1660"/>
                        </Array>
                    </mxGeometry>
                </mxCell>
                <mxCell id="72" style="edgeStyle=none;html=1;exitX=0;exitY=0.5;exitDx=0;exitDy=0;entryX=0.5;entryY=1;entryDx=0;entryDy=0;" edge="1" parent="1" source="70" target="45">
                    <mxGeometry relative="1" as="geometry">
                        <Array as="points">
                            <mxPoint x="800" y="1800"/>
                            <mxPoint x="800" y="1520"/>
                            <mxPoint x="720" y="1520"/>
                        </Array>
                    </mxGeometry>
                </mxCell>
                <mxCell id="75" style="edgeStyle=none;html=1;exitX=0.5;exitY=1;exitDx=0;exitDy=0;entryX=1;entryY=0.5;entryDx=0;entryDy=0;" edge="1" parent="1" source="69" target="74">
                    <mxGeometry relative="1" as="geometry">
                        <Array as="points">
                            <mxPoint x="950" y="1860"/>
                        </Array>
                    </mxGeometry>
                </mxCell>
            </root>
        </mxGraphModel>
    </diagram>
</mxfile>